HIERARCHY
ROOT pelvis
{
  OFFSET 0 100 0
  CHANNELS 6 Xposition Yposition Zposition Zrotation Xrotation Yrotation
  JOINT pelvis_right_femur
  {
    OFFSET -10.78128 -3.44521 -0.5502486
    CHANNELS 3 Zrotation Xrotation Yrotation
    JOINT right_femur_tibia
    {
      OFFSET -0.8047443 -44.0398 -0.1307829
      CHANNELS 3 Zrotation Xrotation Yrotation
      JOINT right_tibia_foot
      {
        OFFSET 3.006224 -47.83518 -5
        CHANNELS 3 Zrotation Xrotation Yrotation
        End Site
        {
          OFFSET 0 -5 15
        }
      }
    }
  }
  JOINT pelvis_left_femur
  {
    OFFSET 10.78128 -3.44521 -0.5502486
    CHANNELS 3 Zrotation Xrotation Yrotation
    JOINT left_femur_tibia
    {
      OFFSET 0.8047443 -44.0398 -0.1307829
      CHANNELS 3 Zrotation Xrotation Yrotation
      JOINT left_tibia_foot
      {
        OFFSET -4.370144 -48.10324 -4.275266
        CHANNELS 3 Zrotation Xrotation Yrotation
        End Site
        {
          OFFSET 0 -5 15
        }
      }
    }
  }
  JOINT pelvis_spine1
  {
    OFFSET 0 6.468898 -3.129235
    CHANNELS 3 Zrotation Xrotation Yrotation
    JOINT spine1
    {
      OFFSET 0 23.15396 4.99043
      CHANNELS 3 Zrotation Xrotation Yrotation
      JOINT spine2
      {
        OFFSET 0 20.79997 -5.064912
        CHANNELS 3 Zrotation Xrotation Yrotation
        JOINT neck
        {
          OFFSET 0 14.38658 9.616178
          CHANNELS 3 Zrotation Xrotation Yrotation
          End Site
          {
            OFFSET 0 20 0
          }
        }
      }
      JOINT right_manubrium
      {
        OFFSET -5.722621 16.35077 3.967754
        CHANNELS 3 Zrotation Xrotation Yrotation
        JOINT right_clavicle
        {
          OFFSET -13.16364 1.694482 -4.693211
          CHANNELS 3 Zrotation Xrotation Yrotation
          JOINT right_humerus
          {
            OFFSET -28.5034 -0.3100689 -2.792744
            CHANNELS 3 Zrotation Xrotation Yrotation
            JOINT right_radius
            {
              OFFSET -25.15693 0.02248979 -1.271978
              CHANNELS 3 Zrotation Xrotation Yrotation
              End Site
              {
                OFFSET -15 0 0
              }
            }
          }
        }
      }
      JOINT left_manubrium
      {
        OFFSET 5.722621 16.35077 3.967754
        CHANNELS 3 Zrotation Xrotation Yrotation
        JOINT left_clavicle
        {
          OFFSET 13.16364 1.694482 -4.693211
          CHANNELS 3 Zrotation Xrotation Yrotation
          JOINT left_humerus
          {
            OFFSET 29.39168 -1.063119 -2.237045
            CHANNELS 3 Zrotation Xrotation Yrotation
            JOINT left_radius
            {
              OFFSET 24.59957 -0.9528479 0.9047498
              CHANNELS 3 Zrotation Xrotation Yrotation
              End Site
              {
                OFFSET 15 -0 -0
              }
            }
          }
        }
      }
    }
  }
}
MOTION
Frames: 11
Frame Time: 0.0416666666667
0 103.5113 0 1.429439 0.3856001 0.1280331 4.182314 -15.25867 11.68942 -0 38.35586 -0 -5.077208 -19.21797 -4.179527 -7.457152 8.04518 -20.84952 -0 4.337532 -0 20.04679 -9.023195 27.62669 -3.395592 -3.6659 6.440626 1.814769 11.14479 -7.001683 2.777598 21.81143 4.144217 1.677682 -25.12156 9.500455 4.560522 -22.15101 10.45117 87.24353 38.8083 -18.01974 -0 0 15.87066 -6.453521 7.548707 3.771826 5.141781 -19.24127 -3.37808 -90.73469 23.17871 20.97077 0 0 -18.43172 16.54316 13.98948 -2.730579
0.3454569 103.5411 1.638889 1.128589 1.578609 0.2796037 4.875798 -18.45758 12.87246 -0 37.95148 -0 -4.981359 -18.57593 -4.401426 -7.456926 8.507685 -21.36443 -0 4.756665 -0 20.5324 -9.977528 28.29205 -3.461122 -3.702917 6.456239 1.797169 11.14823 -7.024855 2.787115 21.82508 4.129427 1.682032 -25.0013 9.461858 4.413631 -22.16924 10.37168 87.37752 39.04776 -18.07379 -0 0 15.68027 -6.558273 7.633041 3.882263 5.157024 -19.27183 -3.503938 -90.13682 23.05897 20.28109 0 0 -19.24119 16.72005 13.58293 -2.922555
0.6321218 103.4018 3.349215 0.7357489 1.154926 0.4086254 5.165903 -19.98863 11.8811 -0 35.61077 -0 -5.477952 -16.683 -4.616371 -6.973754 9.792902 -21.56186 -0 5.492226 -0 17.02789 -12.93711 27.83232 -2.889751 -3.364227 5.895319 2.204026 11.02627 -7.51667 2.54605 21.33349 4.600408 2.079477 -25.21195 9.24836 4.454511 -20.77597 10.5175 88.25619 37.67312 -20.03987 -0 0 13.83616 -7.151691 8.11412 3.931443 5.562766 -20.05448 -3.461483 -89.82951 22.6758 19.05281 0 0 -20.32208 15.4997 13.33968 -1.883399
0.8576114 103.2138 5.218428 0.3095081 1.556588 0.526468 5.743329 -22.36563 11.72184 -0 33.82899 -0 -5.899307 -15.33263 -4.660097 -6.594667 10.47352 -21.57644 -0 6.257222 -0 15.47603 -14.65657 27.41082 -2.644589 -3.206031 5.61753 2.387202 10.96541 -7.748065 2.425265 21.10005 4.845811 2.300075 -25.23797 9.124447 4.524462 -20.08075 10.56881 88.61312 37.08526 -20.95889 -0 0 12.92451 -7.436927 8.406727 4.006432 5.777063 -20.44626 -3.482448 -89.59245 22.57157 18.31848 0 0 -21.05602 14.83671 13.12692 -1.242919
1.025541 102.9683 7.294109 -0.1598837 2.185166 0.6666369 6.406347 -25.1473 11.62475 -0 31.91822 -0 -6.137853 -13.93157 -4.635729 -6.231198 11.23728 -21.50778 -0 7.006784 -0 13.51902 -16.62069 26.66789 -2.467819 -3.085275 5.422349 2.512655 10.9141 -7.881262 2.338084 20.94435 5.025951 2.458124 -25.28753 9.055645 4.67591 -19.60915 10.63356 88.72455 36.63461 -21.49619 -0 0 12.43086 -7.561793 8.587379 4.031169 5.914045 -20.68107 -3.445498 -89.70454 22.62957 18.13653 0 0 -21.20723 14.25448 13.15497 -0.638827
1.140111 102.6764 9.666797 -0.6719806 2.862178 0.8505034 7.123891 -27.774 11.48647 -0 29.85872 -0 -6.599368 -12.54253 -4.506929 -5.790321 11.81385 -21.19095 -0 8.141969 -0 11.77459 -18.01718 25.55345 -2.340701 -2.993872 5.265667 2.606686 10.86883 -7.979254 2.269038 20.82522 5.174296 2.592682 -25.30416 8.997996 4.827833 -19.23335 10.67795 88.77192 36.31268 -21.89839 -0 0 12.05911 -7.643286 8.74879 4.065172 6.02382 -20.85918 -3.42613 -89.79794 22.73869 17.99052 0 0 -21.35525 13.74115 13.16669 -0.0739477
1.206792 102.3603 12.42036 -1.213925 3.577827 1.09608 7.84712 -30.21077 11.29844 -0 27.74919 -0 -7.139222 -11.15498 -4.300016 -5.309034 12.3513 -20.71376 -0 9.707268 -0 9.755264 -19.07343 23.98479 -2.239591 -2.916505 5.13449 2.683605 10.82572 -8.052126 2.211534 20.73227 5.298145 2.703664 -25.32089 8.953819 4.977838 -18.92985 10.719 88.77225 36.04974 -22.19604 -0 0 11.79078 -7.693004 8.879695 4.095318 6.106283 -20.98946 -3.40103 -89.93015 22.87428 17.93957 0 0 -21.40396 13.27321 13.2092 0.4481617
1.233634 102.0503 15.62723 -1.749061 4.156103 1.406228 8.461775 -31.97182 10.96405 -0 25.7901 -0 -7.845425 -9.881704 -4.029222 -4.782229 12.77627 -20.09784 -0 11.98272 -0 7.480476 -19.47434 21.9658 -2.143623 -2.836637 5.002984 2.759891 10.78355 -8.127847 2.154215 20.64321 5.416611 2.809641 -25.32615 8.90322 5.110212 -18.63115 10.75709 88.78698 35.80172 -22.49085 -0 0 11.50688 -7.763744 9.016765 4.142552 6.1809 -21.11703 -3.386211 -90.0087 22.99234 17.83433 0 0 -21.50604 12.81098 13.21569 0.9554808
1.231478 101.7955 19.3347 -2.250691 4.511299 1.769654 8.892922 -32.7878 10.45575 -0 24.16983 -0 -8.657306 -8.852134 -3.729153 -4.230194 13.02653 -19.40519 -0 15.17505 -0 4.832095 -19.11959 19.53947 -2.040238 -2.742337 4.859951 2.844339 10.74161 -8.217235 2.091097 20.54927 5.53658 2.914898 -25.3245 8.839289 5.219238 -18.31218 10.79931 88.83577 35.53572 -22.81373 -0 0 11.16854 -7.88053 9.168729 4.213934 6.251125 -21.2567 -3.378559 -90.02044 23.06678 17.64761 0 0 -21.67284 12.33649 13.17822 1.451052
1.213789 101.6587 23.54382 -2.675383 4.51069 2.148492 9.063541 -32.31643 9.729777 -0 23.03574 -0 -9.553763 -8.247375 -3.440535 -3.672654 12.90995 -18.67575 -0 19.52572 -0 1.932738 -17.84612 16.88795 -1.918971 -2.621056 4.692695 2.944676 10.69953 -8.331436 2.015356 20.44122 5.666913 3.027113 -25.31072 8.75125 5.304126 -17.94278 10.85078 88.93478 35.22558 -23.19742 -0 0 10.73043 -8.072253 9.352853 4.323815 6.322062 -21.42594 -3.380682 -89.93947 23.07914 17.33306 0 0 -21.94238 11.81926 13.07584 1.958023
1.194709 101.7122 28.19964 -2.973558 4.081373 2.483547 8.947865 -30.39075 8.781337 -0 22.36752 -0 -10.47933 -8.220429 -3.197209 -3.145571 12.15077 -17.91602 -0 25.17284 -0 -0.9825883 -15.65752 14.27617 -1.775011 -2.462289 4.494542 3.064427 10.65724 -8.474374 1.922014 20.31618 5.811876 3.148957 -25.28038 8.631659 5.367524 -17.50971 10.91777 89.08245 34.85347 -23.64469 -0 0 10.17741 -8.36024 9.578086 4.485893 6.392382 -21.63046 -3.391123 -89.7617 23.01992 16.88057 0 0 -22.31311 11.23414 12.90187 2.495513
